<svg id="visual" viewBox="0 0 900 600" width="900" height="600" xmlns="http://www.w3.org/2000/svg" xmlns:xlink="http://www.w3.org/1999/xlink" version="1.1"><rect x="0" y="0" width="900" height="600" fill="#FFFFFF"></rect><path d="M0 464L18.8 460.8C37.7 457.7 75.3 451.3 112.8 437.3C150.3 423.3 187.7 401.7 225.2 398.8C262.7 396 300.3 412 337.8 414.7C375.3 417.3 412.7 406.7 450.2 408C487.7 409.3 525.3 422.7 562.8 418.7C600.3 414.7 637.7 393.3 675.2 391.5C712.7 389.7 750.3 407.3 787.8 414.7C825.3 422 862.7 419 881.3 417.5L900 416L900 601L881.3 601C862.7 601 825.3 601 787.8 601C750.3 601 712.7 601 675.2 601C637.7 601 600.3 601 562.8 601C525.3 601 487.7 601 450.2 601C412.7 601 375.3 601 337.8 601C300.3 601 262.7 601 225.2 601C187.7 601 150.3 601 112.8 601C75.3 601 37.7 601 18.8 601L0 601Z" fill="#4169E1" stroke-linecap="round" stroke-linejoin="miter"></path></svg>